<svg width="742px" height="918px" viewBox="0 0 742 918" version="1.1" xmlns="http://www.w3.org/2000/svg" xmlns:xlink="http://www.w3.org/1999/xlink">
    <defs>
        <clipPath id="myClip">
            <path fill="#000000" d="M30.723868,23.5811095 C144.050861,7.86036983 257.377853,0 370.704846,0 C484.031838,0 597.358831,7.86036982 710.685823,23.5811095 L710.685823,23.5811095 C717.704865,24.5547922 723.272289,32.000975 724.059029,41.467178 C735.626137,180.644785 741.409692,319.822393 741.409692,459 C741.409692,598.177607 735.626137,737.355214 724.059029,876.532821 L724.05903,876.532821 C723.27229,885.999025 717.704865,893.445208 710.685824,894.418891 C597.358831,910.139631 484.031838,918 370.704846,918 C257.377853,918 144.050861,910.139631 30.7238682,894.418891 L30.7238682,894.41889 C23.7048271,893.445208 18.1374026,885.999025 17.3506626,876.532822 C5.7835542,737.355215 0,598.177607 0,459 C0,319.822393 5.78355416,180.644786 17.3506625,41.4671796 L17.3506612,41.4671794 C18.1374013,32.0009757 23.7048263,24.5547922 30.723868,23.5811095 Z" id="path-1"></path>
        </clipPath>
    </defs>
</svg>